<?xml version="1.0" standalone="no"?>
<!DOCTYPE svg PUBLIC "-//W3C//DTD SVG 20010904//EN"
 "http://www.w3.org/TR/2001/REC-SVG-20010904/DTD/svg10.dtd">
<svg version="1.0" xmlns="http://www.w3.org/2000/svg"
 width="16.000000pt" height="16.000000pt" viewBox="0 0 16.000000 16.000000"
 preserveAspectRatio="xMidYMid meet">
<metadata>
Created by potrace 1.11, written by Peter Selinger 2001-2013
</metadata>
<g transform="translate(0.000000,16.000000) scale(0.006250,-0.006250)"
fill="#000000" stroke="none">
<path d="M1155 2520 c-40 -64 -95 -194 -126 -298 -13 -46 -40 -65 -77 -55 -14
3 -25 -3 -37 -20 -14 -23 -15 -29 -1 -61 8 -20 25 -40 38 -46 22 -9 22 -9 -4
-9 -23 -1 -28 -6 -28 -26 0 -18 5 -25 20 -25 22 0 18 -22 -10 -55 -10 -11 -20
-29 -22 -40 -2 -11 -10 -19 -16 -17 -7 1 -12 -2 -12 -8 0 -5 3 -10 8 -11 68
-7 71 -10 56 -86 -7 -37 -24 -156 -39 -263 -14 -107 -30 -223 -36 -257 -6 -34
-8 -67 -4 -72 7 -13 -22 -78 -46 -102 -9 -9 -33 -22 -54 -29 -20 -7 -39 -18
-42 -26 -3 -8 -11 -14 -18 -14 -7 0 -18 -7 -25 -15 -7 -8 -21 -15 -32 -15 -10
0 -21 -6 -24 -14 -3 -8 -26 -19 -52 -26 -65 -16 -92 -30 -125 -63 -16 -16 -36
-30 -45 -32 -9 -2 -19 -4 -22 -4 -3 -1 2 -6 10 -11 13 -8 12 -10 -3 -10 -9 0
-23 -11 -29 -25 -6 -14 -14 -25 -18 -25 -4 0 -18 -25 -30 -55 -13 -31 -25 -53
-28 -51 -14 14 101 218 156 279 l26 27 -232 0 -232 0 0 -480 0 -480 1280 0
1280 0 0 395 c0 355 -2 398 -17 429 -17 34 -41 51 -29 21 3 -9 0 -15 -10 -15
-11 0 -13 6 -9 20 4 11 2 21 -4 21 -6 1 -15 3 -21 4 -5 1 -14 3 -20 4 -5 0
-10 9 -10 20 0 10 -9 30 -20 44 -11 14 -20 36 -20 49 0 12 -4 30 -9 38 -16 24
-1 31 22 9 36 -34 70 -46 110 -41 l37 4 0 128 0 128 -101 -5 -100 -4 7 88 c4
48 8 90 10 92 11 12 24 -17 24 -55 0 -40 2 -44 24 -44 13 0 31 -3 40 -6 9 -3
16 -1 16 5 0 6 -11 11 -25 11 -32 0 -49 32 -42 80 3 21 1 43 -3 50 -5 8 -3 22
5 34 7 12 16 62 20 111 3 50 10 94 15 99 5 5 31 8 58 7 l48 -1 -3 81 c-3 84
-8 103 -22 81 -4 -7 -14 -12 -21 -10 -7 2 -14 -9 -16 -27 -11 -86 -15 -100
-25 -82 -6 10 -14 15 -20 12 -5 -4 -9 3 -9 15 0 12 -4 18 -10 15 -6 -3 -10
-17 -10 -30 0 -17 -4 -23 -14 -19 -17 7 -26 25 -36 77 -6 28 -4 37 6 37 8 0
30 10 49 23 28 17 35 29 35 54 0 22 6 33 18 36 9 3 -20 5 -64 6 -90 1 -94 4
-94 68 0 19 -7 41 -15 49 -8 9 -15 31 -15 50 0 19 -4 34 -9 34 -4 0 -25 35
-45 78 -21 42 -41 82 -44 89 -21 36 -108 161 -125 181 l-20 22 -434 0 -433 0
-25 -40z m1232 -1412 c-3 -7 -5 -2 -5 12 0 14 2 19 5 13 2 -7 2 -19 0 -25z
m-254 -122 c24 -18 57 -106 58 -154 l1 -37 13 30 14 30 2 -50 c7 -176 4 -206
-16 -221 -20 -15 -66 -31 -127 -43 l-36 -8 15 32 c14 29 13 35 -7 80 -22 49
-39 48 -40 -2 0 -23 19 -43 21 -21 0 7 5 -2 10 -21 11 -35 4 -55 -11 -31 -8
13 -21 18 -62 22 -20 3 -38 100 -19 106 19 6 12 22 -10 22 -15 0 -19 5 -15 15
3 8 1 15 -5 15 -7 0 -9 10 -4 27 5 23 4 25 -9 14 -13 -11 -17 -10 -23 5 -4 10
-2 19 5 22 7 2 12 19 12 38 0 31 3 34 28 34 16 0 36 -8 45 -18 19 -21 41 -76
27 -67 -6 3 -10 1 -10 -5 0 -9 40 -30 59 -30 4 0 12 10 17 21 10 21 11 21 27
4 28 -28 33 -8 7 27 -27 37 -35 106 -18 151 12 30 24 33 51 13z m-513 -371 c0
-21 17 -27 40 -15 11 6 20 7 20 2 0 -10 -33 -22 -62 -22 -13 0 -18 8 -18 31 0
17 4 28 10 24 6 -3 10 -12 10 -20z m617 -50 c-4 -8 -16 -15 -28 -15 -21 0 -21
0 2 19 26 21 35 20 26 -4z m-600 -11 c-3 -3 -12 -4 -19 -1 -8 3 -5 6 6 6 11 1
17 -2 13 -5z m599 -460 c-3 -7 -13 -14 -23 -13 -11 0 -13 3 -5 6 17 7 15 23
-4 23 -14 0 -15 2 -3 17 11 13 11 17 2 20 -7 3 -13 14 -13 26 0 17 6 12 26
-21 14 -24 23 -50 20 -58z"/>
<path d="M2191 764 c0 -11 3 -14 6 -6 3 7 2 16 -1 19 -3 4 -6 -2 -5 -13z"/>
<path d="M40 2371 c-40 -5 -35 -6 35 -11 l80 -5 2 -32 c1 -18 -3 -33 -8 -33
-5 0 -9 6 -9 13 0 15 -42 33 -98 41 -30 5 -42 3 -42 -6 0 -18 48 -38 91 -38
37 0 37 0 44 -50 9 -68 4 -73 -71 -67 -57 4 -64 3 -64 -14 0 -14 10 -19 47
-22 l48 -3 -47 -2 c-27 -1 -48 -6 -48 -12 0 -6 39 -10 96 -10 l96 0 -6 26 c-5
19 -3 25 6 22 26 -9 4 -77 -26 -79 -87 -6 -108 -8 -113 -13 -12 -12 7 -18 81
-23 66 -5 76 -8 76 -25 0 -18 -7 -19 -105 -16 l-105 3 0 -447 0 -447 27 15
c16 7 35 14 44 14 28 0 133 40 171 65 31 21 38 31 38 59 0 30 -5 36 -51 60
-28 14 -57 26 -65 26 -8 0 -17 8 -21 18 -3 9 -15 29 -25 44 l-19 27 33 6 c52
10 123 2 120 -13 -3 -17 16 -52 29 -52 6 0 8 4 5 9 -3 5 1 11 9 15 8 3 15 13
15 23 0 24 34 79 68 108 53 47 172 70 236 45 14 -5 26 -6 26 -1 0 4 37 11 82
15 46 4 86 10 91 15 14 14 34 216 23 227 -6 5 -56 18 -111 28 -102 19 -170 38
-215 59 -39 19 -147 126 -192 190 -23 31 -44 57 -47 57 -3 0 -12 14 -19 30 -8
17 -18 28 -23 25 -5 -4 -6 1 -3 9 3 9 2 16 -4 16 -5 0 -13 11 -16 25 -4 16
-11 22 -21 19 -18 -7 -21 22 -2 30 9 5 9 7 -1 12 -6 3 -10 10 -6 15 3 5 -10 9
-30 9 -19 0 -40 1 -48 3 -7 2 -33 1 -58 -2z"/>
<path d="M987 2203 c-4 -3 -7 -11 -7 -17 0 -6 5 -5 12 2 6 6 9 14 7 17 -3 3
-9 2 -12 -2z"/>
<path d="M2547 2133 c-6 -9 1 -74 8 -81 3 -3 5 16 5 41 0 45 -4 56 -13 40z"/>
<path d="M2538 2003 c-19 -5 -25 -23 -8 -23 6 0 10 -11 10 -25 0 -14 5 -25 10
-25 6 0 10 18 10 40 0 22 -1 39 -2 39 -2 -1 -11 -3 -20 -6z"/>
<path d="M2461 1678 c6 -12 25 -33 42 -47 55 -48 57 -47 57 14 l0 55 -55 0
c-54 0 -55 -1 -44 -22z"/>
<path d="M448 1463 c6 -2 18 -2 25 0 6 3 1 5 -13 5 -14 0 -19 -2 -12 -5z"/>
<path d="M640 1270 c0 -5 25 -10 55 -10 30 0 55 5 55 10 0 6 -25 10 -55 10
-30 0 -55 -4 -55 -10z"/>
<path d="M285 1095 c-14 -13 -25 -29 -25 -35 0 -6 57 -10 166 -10 161 0 168 1
215 26 27 15 46 31 43 35 -3 5 -88 9 -190 9 -183 0 -185 0 -209 -25z"/>
<path d="M2530 956 c0 -2 7 -6 15 -10 8 -3 15 -1 15 4 0 6 -7 10 -15 10 -8 0
-15 -2 -15 -4z"/>
</g>
</svg>
