<?xml version="1.0" standalone="no"?>
<!DOCTYPE svg PUBLIC "-//W3C//DTD SVG 20010904//EN"
 "http://www.w3.org/TR/2001/REC-SVG-20010904/DTD/svg10.dtd">
<svg version="1.0" xmlns="http://www.w3.org/2000/svg"
 width="16.000000pt" height="16.000000pt" viewBox="0 0 16.000000 16.000000"
 preserveAspectRatio="xMidYMid meet">
<metadata>
Created by potrace 1.11, written by Peter Selinger 2001-2013
</metadata>
<g transform="translate(0.000000,16.000000) scale(0.003612,-0.003612)"
fill="#000000" stroke="none">
<path d="M1514 4413 c3 -10 8 -43 11 -73 13 -118 26 -228 30 -260 2 -14 7 -50
10 -80 3 -30 8 -66 10 -80 2 -14 6 -54 10 -90 4 -36 8 -76 10 -90 6 -41 14
-102 20 -160 3 -30 8 -66 10 -80 2 -14 7 -52 10 -85 3 -33 8 -71 10 -85 2 -14
6 -52 10 -85 3 -33 8 -71 10 -85 2 -14 6 -50 10 -80 3 -30 7 -62 8 -70 3 -15
14 -37 147 -295 42 -82 146 -285 230 -450 84 -165 157 -306 163 -313 10 -13
11 -325 2 -1442 -2 -351 0 -499 7 -487 5 11 11 24 13 30 1 7 5 19 8 27 7 17
257 730 324 925 24 72 48 139 53 150 5 11 43 119 85 240 42 121 92 263 110
315 18 52 47 134 64 182 l30 88 -190 504 -190 505 91 358 c50 197 123 482 162
633 82 320 108 428 108 441 0 5 -270 9 -696 9 -657 0 -695 -1 -690 -17z"/>
</g>
</svg>
