<?xml version="1.0" encoding="utf-8"?>
<!-- Generator: Adobe Illustrator 19.2.0, SVG Export Plug-In . SVG Version: 6.00 Build 0)  -->
<svg version="1.1" id="Layer_1" xmlns="http://www.w3.org/2000/svg" xmlns:xlink="http://www.w3.org/1999/xlink" x="0px" y="0px"
	 viewBox="0 0 612 792" style="enable-background:new 0 0 612 792;" xml:space="preserve">
<style type="text/css">
	.st0{fill:none;stroke:#000000;stroke-width:3;stroke-miterlimit:10;}
	.st1{fill:#FDF9CD;}
	.st2{fill:#F0ECBE;}
	.st3{fill:#FFFFFF;}
</style>
<g>
	<circle class="st0" cx="213.7" cy="231.5" r="45.1"/>
	<circle class="st0" cx="338.1" cy="231.5" r="45.1"/>
	<path class="st0" d="M258.7,225.7c11.4-3,22.8-3,34.2,0"/>
	<g>
		<path class="st1" d="M285.5,227.3h-18.3c-2.1,0-3.8-1.7-3.8-3.8v0c0-2.1,1.7-3.8,3.8-3.8h18.3c2.1,0,3.8,1.7,3.8,3.8v0
			C289.3,225.5,287.6,227.3,285.5,227.3z"/>
		<path class="st2" d="M284.8,226.9h-16.9c-1.9,0-3.5-1.6-3.5-3.5l0,0c0-1.9,1.6-3.5,3.5-3.5h16.9c1.9,0,3.5,1.6,3.5,3.5l0,0
			C288.3,225.4,286.7,226.9,284.8,226.9z"/>
	</g>
	<path d="M168.6,231.1H160c-1.8,0-3.3-1.5-3.3-3.3V226c0-1.8,1.5-3.3,3.3-3.3h8.6V231.1z"/>
	<path d="M391.8,231.1h-8.6v-8.4h8.6c1.8,0,3.3,1.5,3.3,3.3v1.8C395.1,229.6,393.6,231.1,391.8,231.1z"/>
</g>
<path class="st3" d="M808.5,312.7c0-12.4-7-22.7-16.1-24.4c-2.2-8.8-6.5-17.4-14.4-22.3c-6.4-4-14.1-5.1-21.6-5
	c-8.6,0.1-17.3,1.5-25,5.3c-8.3,4.1-12.3,10.2-17.6,17.2c-5.7-3.9-10.8-7.2-18.1-7.2c-13.9,0-25.2,11.3-25.2,25.2c0,1,0.1,2,0.2,2.9
	c-3.7-1.7-7.8-2.7-12.1-2.7c-16,0-29,13-29,29c0,24.1,23,27.9,42.1,30.6c19.2,2.7,38.6,3.4,57.9,2.3c9.5-0.5,18.8-2,28.2-2.8
	c11.4-1.1,20.5-3.2,28.9-11.5c3.3-3.3,5.9-7.8,7.7-12.6C802.4,333.8,808.5,324.2,808.5,312.7z"/>
<polygon points="259.5,100.2 273.6,100.2 266.6,117 273.6,128.2 266.6,144.3 266.6,130.7 255.6,115.8 "/>
<g>
	<path d="M109.4,240.3c3.7-0.5,9.2-2.6,16.4-6.2c6.6-3.2,12.1-4.8,16.5-4.8c1.9,0,3.9,0.1,6,0.3v12.5v-0.5v21.5
		c0.6,2.7-2.4,6.7-9.1,12.2c-8.1,6.6-16,10.5-23.6,11.6l-4.6-0.8c-4.6-3.8-9.1-7.6-13.4-11.4c-7.8-6.9-12.2-12.4-13.1-16.4
		c-0.3-7.1-0.5-14.5-0.5-22.2c0-11.1,0.4-24.1,1.2-39.1c12-9.2,24.6-16.2,37.5-21h3.9l13.7,17.1c1.6,1.7,3,4.1,4,7.3L122.9,217
		c2.7-3.6,4-6.7,4-9.4c0-0.7-0.1-1.4-0.3-2.2c0.1-0.4,0.2-0.9,0.2-1.4c0-1.6-1.8-7.3-5.5-16.8c-2.9,1.2-6.9,3.1-11.9,5.6
		c-2.8,1.9-4.6,4.2-5.5,7.1v66.9c0.6,1.7,2.3,3.9,5.1,6.3c2.5,2.3,4.7,3.9,6.6,4.8c7.7-2.5,12.4-5.1,13.9-8v-26.7
		c-2,0.8-4.1,1.2-6.4,1.2C119.1,244.3,114.5,243,109.4,240.3z"/>
	<path d="M444.3,204.1v40.6l-1.2,36.9c-9.4,8.3-17.9,15.5-25.6,21.6c-2.9,2.3-4.9,3.4-6.1,3.4c-0.4,0-0.8-0.2-1.1-0.5l-7.2-12.7
		c-1.3-3-2-5-2-6.2c0-1.2,0.8-2.3,2.3-3.2l14.2-8.3v0.6c-2.2,2.1-3.4,4-3.7,5.7c0.6,2.6,1.5,6.3,2.6,11.1c0.5,2.4,1,3.5,1.4,3.4
		c0.7-0.1,3.7-2.5,9.1-7.3c2.4-2.2,3.8-4.4,4.3-6.6v-4.5c0,0.3-0.1-9.7-0.3-30l-11.6,14.1l-15-9l-3.4-35.1l15.7-23.1l13.1,7.3
		c-0.1-3-0.2-5.4-0.3-7.3c1.8,1.4,5,3.2,9.5,5.2C442.5,202,444.3,203.3,444.3,204.1z M431.1,242.9c-0.2-10.7-0.6-21.5-1.1-32.6
		l-12.2-7.1l-1.9,45.5l4.6,4L431.1,242.9z"/>
	<path d="M470.5,272.5c-0.2,0.4-0.3,0.8-0.3,1.2c0,1.9,2.5,4.9,7.4,9.1l-12.7-4.6c-4.9-1.9-7.6-4.1-7.9-6.6l0.6-86.3
		c5-2.8,7.8-4.5,8.3-5.3l5.1-7.1v19.6L470.5,272.5z"/>
	<path d="M517.8,228l-3.9,8c-4-2.4-8.6-3.6-13.8-3.6c-3.1,0-5,0.4-5.7,1.2l1.1,25.3c0.8,1.8,2.6,3.3,5.3,4.8c2.1-2.7,3.4-6,4.2-10
		c0.1-0.4,0.4-3,0.8-7.9l6.8,8.6l-9.4,13.4l-7.9,0.2l-15.6-13.6c-0.8-3.9-1.2-8.4-1.2-13.4c0-7.2,0.7-14.8,2.2-22.7l17.3-13.6
		c1.2-0.4,2.3-0.4,3.1,0.2l12.5,8.2L517.8,228z M506.7,229l-7.9-17.8c-0.7-0.9-1.2-1.4-1.4-1.4c-0.4,0-0.8,0.4-1.2,1.1l-1.8,17.6
		C500.1,228.2,504.2,228.4,506.7,229z"/>
</g>
</svg>
